<?xml version="1.0" encoding="utf-8"?>
<!-- Generator: Adobe Illustrator 22.1.0, SVG Export Plug-In . SVG Version: 6.00 Build 0)  -->
<svg version="1.1" id="Ebene_1" xmlns="http://www.w3.org/2000/svg" xmlns:xlink="http://www.w3.org/1999/xlink" x="0px" y="0px"
	 viewBox="0 0 172 231" style="enable-background:new 0 0 172 231;" xml:space="preserve">
<style type="text/css">
	.st0{fill:none;}
</style>
<g>
	<rect x="0.5" y="0.9" pointer-events="all" class="st0" width="170.4" height="230"/>
	<path pointer-events="all" d="M67.8,160.6c5.7,1.7,11.5,2.2,17.7,2.2c43.2,0,75.1-35.1,75.1-76.1c0-35.7-27.7-75.3-76.1-75.3
		c-38.4,0-73.5,31.6-73.5,77.7c1.5,25.7,12.2,44,28.8,57.5l24.1-28.1l16.4,10.2L67.8,160.6z M15.8,230.9c-6.8,0-15.3-5.7-15.3-16.6
		V17.8c0-9.5,7.2-16.9,15.9-16.9h138.3c10.6,0,16.1,9.3,16.1,16v197.5c0,9.4-7.8,16.5-15.6,16.5H15.8z M15.6,184.3
		c-3,4.6-4.9,8.3-4.9,12.9c0,11.1,9,18,17.1,18c9,0,14.3-5.3,17.8-12.8l26.8-70.8l-7.6-4.5L15.6,184.3z M27.8,206.4
		c-4,0-6.7-3.4-6.7-6.5c0-5.2,4.3-7,6.4-7c5.2,0,6.9,4.3,6.9,6.6C34.3,203.5,31.2,206.4,27.8,206.4z M85.3,110.8
		c-13.5,0-23.2-11.7-23.2-23c0-14.5,11.2-24.2,22.7-24.2c14-0.2,24.5,11,24.1,24.2C108.9,99.7,99.1,110.8,85.3,110.8z"/>
</g>
</svg>
